<svg width="67" height="68" viewBox="0 0 67 68" fill="none" xmlns="http://www.w3.org/2000/svg">
<circle cx="33.5" cy="33.5" r="31.5" stroke="#F4F7FB" stroke-width="4"/>
<path d="M32.621 63.4721L33.5001 65.0932L34.3791 63.4721L57.6434 20.5699L58.4441 19.0932L56.7643 19.0932L10.2359 19.0932L8.55603 19.0932L9.35678 20.5699L32.621 63.4721Z" stroke="#F4F7FB" stroke-width="2"/>
<path fill-rule="evenodd" clip-rule="evenodd" d="M33.4998 51.934L19.2676 25.6239L47.732 25.6239L33.4998 51.934ZM23.9982 27.5V27.5C23.9982 26.6715 23.3267 26 22.4982 26C21.6698 26 20.9982 26.6715 20.9982 27.5C20.9982 28.3284 21.6698 29 22.4982 29C22.8178 29 23.114 28.9 23.3574 28.7297L32.5688 45.3225C32.2212 45.5973 31.9982 46.0226 31.9982 46.5C31.9982 47.3284 32.6698 48 33.4982 48C34.3267 48 34.9982 47.3284 34.9982 46.5C34.9982 46.0237 34.7763 45.5993 34.4301 45.3245L43.6416 28.7316C43.8844 28.9008 44.1797 29 44.498 29C45.3265 29 45.998 28.3284 45.998 27.5C45.998 26.6716 45.3265 26 44.498 26C43.6696 26 42.998 26.6716 42.998 27.5H23.9982Z" fill="#F4F7FB"/>
<rect x="50" y="33" width="16" height="2" fill="#F4F7FB"/>
<rect x="1" y="33" width="16" height="2" fill="#F4F7FB"/>
<rect width="14.8183" height="2" transform="matrix(0.552995 -0.833185 -0.833185 -0.552995 15.6426 58.1586)" fill="#F4F7FB"/>
<rect x="51.5664" y="59.1586" width="15.8757" height="2" transform="rotate(-123.573 51.5664 59.1586)" fill="#F4F7FB"/>
<rect x="20.625" y="27.1927" width="12.9157" height="1.58019" transform="rotate(-144.957 20.625 27.1927)" fill="#F4F7FB"/>
<rect width="13.2329" height="1.58019" transform="matrix(0.81872 -0.574193 -0.574193 -0.81872 46.9062 27.1927)" fill="#F4F7FB"/>
<rect x="32" y="64" width="16" height="3" transform="rotate(-90 32 64)" fill="#F4F7FB"/>
<path d="M39.5371 19.7555L47.4929 3.82737L45.7037 2.93368L37.7479 18.8618L39.5371 19.7555Z" fill="#F4F7FB"/>
<path d="M26.9551 19.7555L18.9992 3.82737L20.7885 2.93368L28.7443 18.8618L26.9551 19.7555Z" fill="#F4F7FB"/>
</svg>
